<?xml version="1.0" encoding="utf-8"?>
<!-- Generator: Adobe Illustrator 24.1.3, SVG Export Plug-In . SVG Version: 6.00 Build 0)  -->
<svg version="1.1" id="Layer_1" xmlns="http://www.w3.org/2000/svg" xmlns:xlink="http://www.w3.org/1999/xlink" x="0px" y="0px"
	 viewBox="0 0 1052.1 314.1" style="enable-background:new 0 0 1052.1 314.1;" xml:space="preserve">
<style type="text/css">
	.st0{fill:url(#SVGID_1_);}
	.st1{opacity:0.69;fill:#FCFDFF;}
	.st2{fill:none;stroke:#425EAA;stroke-width:2.2123;stroke-miterlimit:10;}
	.st3{fill:#425EAA;}
	.st4{opacity:0.69;fill:#FFFFFF;}
</style>
<g>
	<linearGradient id="SVGID_1_" gradientUnits="userSpaceOnUse" x1="345.7232" y1="181.4597" x2="1052.1" y2="181.4597">
		<stop  offset="0" style="stop-color:#1D2454"/>
		<stop  offset="1" style="stop-color:#40BA58"/>
	</linearGradient>
	<path class="st0" d="M380.1,219.8c-11.1-5.5-19.6-13.2-25.5-23.3c-5.9-10.1-8.9-21.8-8.9-35.1c0-18.5,3.5-34.9,10.5-49.2
		c7-14.3,16.4-25.4,28.4-33.3C396.5,71,409.8,67,424.4,67c13.6,0,23.9,3.5,30.9,10.5c7,7,10.6,16.2,10.6,27.6
		c0,7.7-1.4,13.8-4.1,18.5c-2.7,4.7-6.6,7-11.6,7c-3.5,0-6.3-0.8-8.3-2.5c-2-1.6-3-4-3-7.2c0-1.1,0.3-3.2,0.8-6.2
		c0.8-3.8,1.1-6.8,1.1-9.1c0-11.4-6.1-17.2-18.3-17.2c-8.3,0-16.2,2.7-23.8,8.1c-7.5,5.4-13.6,13.4-18.3,23.9c-4.7,10.5-7,23-7,37.4
		c0,15.1,4.2,26.8,12.6,35c8.4,8.2,20.9,12.4,37.4,12.4c8.2,0,16.4-1,24.8-3.1c8.4-2.1,17.6-5.2,27.8-9.5c1.9-0.8,3.5-1.1,4.7-1.1
		c2,0,3.5,0.8,4.5,2.3c1,1.5,1.5,3.5,1.5,5.8c0,7.7-4.1,13.3-12.5,17c-8.9,3.9-18.2,6.8-27.8,8.6c-9.6,1.8-18.8,2.7-27.4,2.7
		C404.1,228,391.1,225.2,380.1,219.8z M580.7,187.2c0.9,1.5,1.4,3.6,1.4,6.2c0,5-1.2,8.9-3.6,11.7c-5.8,6.7-11.7,12.1-17.8,16.4
		c-6.1,4.3-13,6.4-20.8,6.4c-6.4,0-11.3-1.9-14.5-5.6c-3.3-3.7-4.9-9.1-4.9-16.1c0-3.5,0.9-9.8,2.6-18.9c1.6-7.9,2.5-13.4,2.5-16.4
		c0-2-0.7-3-2.1-3c-1.6,0-4,2.1-7,6.3c-3,4.2-6,9.8-9.1,16.7c-3,6.9-5.5,14.2-7.4,21.9c-2.4,10.1-8.3,15.1-17.7,15.1
		c-3.8,0-6.3-1.4-7.5-4.1c-1.2-2.7-1.8-7.6-1.8-14.6c0-4,0.1-7.2,0.2-9.6l0.2-15.1c0-19.4,2-39.6,5.9-60.6c4-21,9.8-38.6,17.5-52.9
		c7.7-14.3,17-21.4,27.8-21.4c5.8,0,10.5,2.5,14.1,7.5c3.6,5,5.4,11.4,5.4,19.3c0,12.7-3.7,25.9-11.1,39.5
		c-7.4,13.6-19.5,29.6-36.2,47.8c-0.4,6.5-0.6,13.3-0.6,20.2c4.1-10.7,8.8-19.4,13.9-26.1c5.1-6.7,10.1-11.5,15.1-14.4
		c5-2.9,9.5-4.3,13.7-4.3c8.2,0,12.3,4.1,12.3,12.3c0,4.9-1.4,13.8-4.1,26.6c-2.4,10.9-3.6,18.2-3.6,21.7c0,5,1.8,7.5,5.5,7.5
		c2.5,0,5.5-1.5,9-4.6c3.5-3.1,8.1-8.1,13.9-15c1.5-1.8,3.2-2.6,5.1-2.6C578.4,185,579.7,185.7,580.7,187.2z M513.2,78.1
		c-2.8,6.5-5.4,15.2-8,26.2c-2.6,11-4.7,23-6.3,35.9c7.8-9.2,14.2-19.2,19.3-30c5.1-10.8,7.6-20.6,7.6-29.4c0-4-0.4-7.1-1.3-9.2
		c-0.9-2.1-2.1-3.2-3.8-3.2C518.5,68.4,516,71.6,513.2,78.1z M572.2,220.1c-3.6-5.2-5.4-11.7-5.4-19.5c0-9.4,0.6-18.1,1.9-25.9
		c1.3-7.9,3.3-16.2,6.2-25c1.3-3.8,3-6.5,5.3-8.1c2.3-1.6,5.8-2.5,10.8-2.5c2.8,0,4.7,0.4,5.8,1.3c1.1,0.9,1.6,2.2,1.6,4
		c0,1-0.7,4.4-2.1,10.2c-1.3,4.7-2.3,8.9-3,12.6c-2.5,13.2-3.8,22-3.8,26.4c0,2.6,0.3,4.5,0.9,5.6c0.6,1.1,1.6,1.6,3,1.6
		c1.9,0,4.2-1.9,7.1-5.7c2.8-3.8,5.8-9.5,9.1-17.2c3.2-7.7,6.3-17.1,9.3-28.3c1-3.8,2.5-6.5,4.6-8.1c2.1-1.6,5.2-2.5,9.3-2.5
		c2.9,0,4.9,0.3,6,1c1.1,0.7,1.7,2,1.7,3.9c0,3.1-1.6,11.8-4.7,25.8c-3.5,16.1-5.3,26-5.3,29.8c0,2.4,0.5,4.2,1.5,5.6
		c1,1.3,2.3,2,4,2c2.5,0,5.5-1.5,9-4.6c3.5-3.1,8.1-8.1,13.9-15c1.5-1.8,3.2-2.6,5.1-2.6c1.6,0,2.9,0.8,3.9,2.3
		c0.9,1.5,1.4,3.6,1.4,6.2c0,5-1.2,8.9-3.6,11.7c-5.4,6.7-11.2,12.1-17.4,16.4c-6.2,4.3-13.3,6.4-21.2,6.4c-6,0-10.5-2.3-13.3-7
		c-2.8-4.7-4.2-11.2-4.2-19.6c-2.1,8.6-5.3,15.1-9.6,19.7c-4.3,4.6-8.9,6.9-13.8,6.9C580.4,228,575.8,225.4,572.2,220.1z
		 M657.3,220.4c-2-5-2.9-13.1-2.9-24.1c0-16.3,2.3-31.9,7-46.6c1.1-3.6,3-6.3,5.6-8c2.6-1.7,6.2-2.5,10.8-2.5c2.5,0,4.3,0.3,5.3,0.9
		c1,0.6,1.5,1.8,1.5,3.6c0,2-0.9,6.5-2.8,13.6c-1.3,5-2.3,9.4-3,13.2c-0.8,3.8-1.4,8.4-1.9,14c4.2-10.8,8.8-19.6,14-26.4
		c5.2-6.8,10.2-11.6,15.2-14.5c5-2.9,9.5-4.3,13.7-4.3c8.2,0,12.3,4.1,12.3,12.3c0,1.6-0.6,5.6-1.7,11.9c-1,5-1.5,8.2-1.5,9.4
		c0,4.4,1.6,6.6,4.7,6.6c3.5,0,8-2.8,13.6-8.3c1.6-1.6,3.3-2.5,5.1-2.5c1.6,0,2.9,0.7,3.9,2.2c0.9,1.4,1.4,3.4,1.4,5.8
		c0,4.7-1.3,8.3-3.8,10.9c-3.5,3.6-7.6,6.8-12.4,9.3c-4.7,2.6-9.7,3.9-15,3.9c-6.7,0-11.7-1.7-15.2-5.1c-3.5-3.4-5.2-8-5.2-13.8
		c0-1.9,0.2-3.8,0.6-5.7c0.3-2.5,0.4-4.2,0.4-5.1c0-2-0.7-3-2.1-3c-1.9,0-4.4,2.1-7.5,6.3c-3.1,4.2-6.1,9.8-9.2,16.7
		c-3,6.9-5.5,14.2-7.4,21.9c-1.4,5.9-3,9.9-4.8,12c-1.8,2.1-4.7,3.1-8.6,3.1C662.6,228,659.2,225.4,657.3,220.4z M844.4,187.2
		c0.9,1.5,1.4,3.6,1.4,6.2c0,5-1.2,8.9-3.6,11.7c-5.4,6.7-11.2,12.1-17.4,16.4c-6.2,4.3-13.3,6.4-21.2,6.4c-6.7,0-12.1-2.4-16.2-7.2
		c-7.2,4.7-14.7,7-22.5,7.2c-1.6,24.3-5.3,44.5-11.1,60.8c-5.8,16.3-14.3,24.4-25.5,24.4c-6.8,0-11.8-2.5-15.1-7.4
		c-3.3-4.9-4.9-11.7-4.9-20.4c0-12.3,2.8-26.7,8.5-43.1c5.7-16.4,14.4-34.5,26.2-54.2c0-18.4-0.1-31.1-0.4-38.3
		c-0.1-3.6,1.3-6.5,4.3-8.7c3-2.1,6.8-3.2,11.3-3.2c2.6,0,4.6,0.5,5.8,1.6c1.2,1.1,1.9,3.2,2,6.3c0,3.1,0.1,5.5,0.2,7
		c4-5,8-8.6,11.9-10.8c3.9-2.2,8-3.3,12.5-3.3c7,0,12.8,2.8,17.3,8.5c4.5,5.7,6.7,13.1,6.7,22.3c0,6.7-1.1,13.1-3.2,19.4
		c-2.1,6.3-5.1,12-8.9,17.2c2.6,0.8,4.8,1.1,6.6,1.1c4.2,0,8.1-1.5,11.9-4.5c3.8-3,8.6-8,14.5-15.1c1.5-1.8,3.2-2.6,5.1-2.6
		C842.2,185,843.5,185.7,844.4,187.2z M738.3,272.6c2.3-14.8,3.7-33.2,4.3-55.2c-5.4,12.6-9.7,24.6-12.8,36
		c-3.1,11.4-4.7,21.1-4.7,28.9c0,4,0.5,7.1,1.4,9.2c0.9,2.1,2,3.2,3.3,3.2C733.2,294.7,736,287.4,738.3,272.6z M778.4,202.4
		c3.8-4,6.9-8.9,9.1-14.7c2.3-5.8,3.4-12,3.4-18.4c0-3.8-0.8-6.6-2.3-8.6c-1.5-1.9-3.5-2.9-6-2.9c-4.5,0-10,4.8-16.4,14.3
		c-0.1,5.5-0.2,13.6-0.2,24.3c0,5.8-0.1,10.3-0.2,13.4C770.4,208.8,774.5,206.4,778.4,202.4z M902.6,140.2c1.1,0.8,1.7,2,1.7,3.8
		c0,3-1.6,13.8-4.9,32.3c-2.9,17.7-4.6,28.2-5.1,31.5c-4.7,32.3-11.1,57.9-19.2,76.8c-8.2,18.9-19.1,28.3-32.6,28.3
		c-6.4,0-11.6-2-15.7-5.9c-4-4-6-9.1-6-15.6c0-5.9,1.3-11.9,4.1-18.1c2.7-6.2,7.7-13.2,15.1-21.2c7.4-8,17.8-17.1,31.2-27.4l0.6-4.3
		c0.9-4.7,1.9-11.3,3-20c-2.5,9.1-6,15.9-10.6,20.7c-4.5,4.7-9.3,7.1-14.3,7.1c-5.7,0-10.3-2.6-13.9-7.8c-3.6-5.2-5.4-11.7-5.4-19.5
		c0-9.4,0.6-18.1,1.9-25.9c1.3-7.9,3.3-16.2,6.2-25c1.3-3.8,3-6.5,5.3-8.1c2.3-1.6,5.8-2.5,10.8-2.5c2.8,0,4.7,0.4,5.8,1.3
		c1.1,0.9,1.6,2.2,1.6,4c0,1-0.7,4.4-2.1,10.2c-1.3,4.7-2.3,8.9-3,12.6c-1,5.2-1.9,10.1-2.6,14.8c-0.8,4.7-1.1,8.6-1.1,11.6
		c0,4.8,1.3,7.2,4,7.2c1.9,0,4.2-1.9,7.1-5.7c2.8-3.8,5.8-9.5,9.1-17.2c3.2-7.7,6.3-17.1,9.3-28.3c1-3.8,2.5-6.5,4.6-8.1
		c2.1-1.6,5.2-2.5,9.3-2.5C899.5,139.1,901.5,139.5,902.6,140.2z M855.1,283.6c3.9-7.3,7.8-19.4,11.7-36.4
		c-9.7,8.2-16.7,15.6-21,22.4c-4.3,6.7-6.5,12.6-6.5,17.6c0,2.1,0.4,3.9,1.2,5.3c0.8,1.4,2.2,2.1,4.1,2.1
		C847.6,294.6,851.2,290.9,855.1,283.6z M916.1,248c0-2.4,0.6-4.3,1.7-5.5c1.1-1.3,2.7-1.9,4.8-1.9c2.1,0,3.8,0.6,4.9,1.9
		s1.8,3.1,1.8,5.5c0,2.4-0.6,4.2-1.8,5.5s-2.8,1.9-4.9,1.9c-1.9,0-3.4-0.6-4.6-1.7C916.7,252.5,916.1,250.7,916.1,248z M971.1,254.9
		c-8.7,0-15.4-2.7-20.1-8c-4.7-5.3-7.1-12.9-7.1-22.6c0-10,2.4-17.7,7.2-23.2c4.8-5.5,11.7-8.2,20.6-8.2c2.9,0,5.8,0.3,8.6,0.9
		c2.9,0.6,5.1,1.3,6.8,2.2l-2.8,7.7c-2-0.8-4.2-1.5-6.6-2c-2.4-0.5-4.5-0.8-6.3-0.8c-12.2,0-18.2,7.8-18.2,23.3
		c0,7.4,1.5,13,4.4,16.9c3,3.9,7.4,5.9,13.2,5.9c5,0,10.1-1.1,15.3-3.2v8C982.2,253.9,977.2,254.9,971.1,254.9z M1052.1,223.9
		c0,9.8-2.5,17.4-7.4,22.9c-4.9,5.5-11.7,8.2-20.4,8.2c-5.4,0-10.1-1.3-14.3-3.8c-4.1-2.5-7.4-6.1-9.6-10.8
		c-2.3-4.7-3.4-10.2-3.4-16.5c0-9.8,2.4-17.4,7.3-22.8c4.9-5.4,11.6-8.2,20.3-8.2c8.4,0,15,2.8,20,8.4
		C1049.6,206.8,1052.1,214.4,1052.1,223.9z M1006.5,223.9c0,7.6,1.5,13.5,4.6,17.5s7.6,6,13.5,6s10.4-2,13.5-6
		c3.1-4,4.6-9.8,4.6-17.5c0-7.6-1.5-13.4-4.6-17.3c-3.1-4-7.6-5.9-13.6-5.9c-5.9,0-10.4,1.9-13.4,5.8
		C1008,210.3,1006.5,216.1,1006.5,223.9z"/>
	<g>
		
			<image style="overflow:visible;opacity:0.75;" width="396" height="374" xlink:href="3448AEB4.png"  transform="matrix(1 0 0 1 -32.6482 -34.5482)">
		</image>
		<g>
			<g>
				<g>
					<path class="st1" d="M205,167.5H93.9c-6.7,0-12.1-5.4-12.1-12.1V52c0-6.7,5.4-12.1,12.1-12.1H205c6.7,0,12.1,5.4,12.1,12.1
						v103.3C217.1,162.1,211.7,167.5,205,167.5z"/>
					<path class="st2" d="M205,167.5H93.9c-6.7,0-12.1-5.4-12.1-12.1V52c0-6.7,5.4-12.1,12.1-12.1H205c6.7,0,12.1,5.4,12.1,12.1
						v103.3C217.1,162.1,211.7,167.5,205,167.5z"/>
				</g>
				<path class="st3" d="M185.4,80.6c-9.7,0-17.5,6.7-17.5,14.9V123h1.8V95.5c0-7.4,7.1-13.4,15.7-13.4h31.7v-1.5H185.4z"/>
				<g>
					<g>
						<path class="st4" d="M251.7,74.6l-54.1,0c-6.7,0-12.1-5.4-12.1-12.1l0-49.6c0-6.7,5.4-12.1,12.1-12.1l54.1,0
							c6.7,0,12.1,5.4,12.1,12.1l0,49.6C263.8,69.1,258.4,74.6,251.7,74.6z"/>
						<path class="st2" d="M251.7,74.6l-54.1,0c-6.7,0-12.1-5.4-12.1-12.1l0-49.6c0-6.7,5.4-12.1,12.1-12.1l54.1,0
							c6.7,0,12.1,5.4,12.1,12.1l0,49.6C263.8,69.1,258.4,74.6,251.7,74.6z"/>
					</g>
					<path class="st3" d="M242.3,40.8c-6.4,0-11.7,5.2-11.7,11.7V74h1.2V52.5c0-5.8,4.7-10.5,10.5-10.5h21.1v-1.2H242.3z"/>
				</g>
				<g>
					<path class="st4" d="M297.5,222.4h-90c-6.7,0-12.1-5.4-12.1-12.1v-83.4c0-6.7,5.4-12.1,12.1-12.1h90c6.7,0,12.1,5.4,12.1,12.1
						v83.4C309.6,217,304.1,222.4,297.5,222.4z"/>
					<path class="st2" d="M297.5,222.4h-90c-6.7,0-12.1-5.4-12.1-12.1v-83.4c0-6.7,5.4-12.1,12.1-12.1h90c6.7,0,12.1,5.4,12.1,12.1
						v83.4C309.6,217,304.1,222.4,297.5,222.4z"/>
				</g>
				<g>
					<path class="st4" d="M224.2,249.2H114.6c-6.7,0-12.1-5.4-12.1-12.1V135.2c0-6.7,5.4-12.1,12.1-12.1h109.6
						c6.7,0,12.1,5.4,12.1,12.1V237C236.3,243.7,230.9,249.2,224.2,249.2z"/>
					<path class="st2" d="M224.2,249.2H114.6c-6.7,0-12.1-5.4-12.1-12.1V135.2c0-6.7,5.4-12.1,12.1-12.1h109.6
						c6.7,0,12.1,5.4,12.1,12.1V237C236.3,243.7,230.9,249.2,224.2,249.2z"/>
				</g>
				<g>
					<g>
						<path class="st4" d="M124.5,227.9H14.9c-6.7,0-12.1-5.4-12.1-12.1V113.9c0-6.7,5.4-12.1,12.1-12.1h109.6
							c6.7,0,12.1,5.4,12.1,12.1v101.9C136.7,222.5,131.2,227.9,124.5,227.9z"/>
						<path class="st2" d="M124.5,227.9H14.9c-6.7,0-12.1-5.4-12.1-12.1V113.9c0-6.7,5.4-12.1,12.1-12.1h109.6
							c6.7,0,12.1,5.4,12.1,12.1v101.9C136.7,222.5,131.2,227.9,124.5,227.9z"/>
					</g>
				</g>
				<g>
					<g>
						<path class="st4" d="M111.1,286H57c-6.7,0-12.1-5.4-12.1-12.1v-49.6c0-6.7,5.4-12.1,12.1-12.1h54.1c6.7,0,12.1,5.4,12.1,12.1
							v49.6C123.2,280.6,117.8,286,111.1,286z"/>
						<path class="st2" d="M111.1,286H57c-6.7,0-12.1-5.4-12.1-12.1v-49.6c0-6.7,5.4-12.1,12.1-12.1h54.1c6.7,0,12.1,5.4,12.1,12.1
							v49.6C123.2,280.6,117.8,286,111.1,286z"/>
					</g>
					<g>
						<path class="st3" d="M114.1,261.3H92.3v0.8h21.8c1.4,0,2.5,1.1,2.5,2.5v20.6h0.8v-20.6C117.4,262.8,115.9,261.3,114.1,261.3z"
							/>
						<circle class="st3" cx="93" cy="261.7" r="1.7"/>
					</g>
				</g>
				<g>
					<path class="st3" d="M24,181.7c-8.6,0-15.5,7-15.5,15.5v28.6H10v-28.6c0-7.7,6.3-13.9,13.9-13.9c20,0,40,0,60,0
						c0-0.5,0-1,0-1.5C64,181.7,44,181.7,24,181.7z"/>
					<circle class="st3" cx="84.8" cy="182.6" r="2.2"/>
				</g>
				<g>
					<path class="st3" d="M23.3,206.8c-2.9,0-5.3,2.4-5.3,5.3c0,5.4,0,10.8,0,16.2c0.4,0,0.9,0,1.3,0c0-5.4,0-10.8,0-16.2
						c0-2.2,1.8-4,4-4c48.1,0,96.1,0,144.2,0c0-0.4-0.1-0.8-0.1-1.1C119.4,206.9,71.3,206.9,23.3,206.8z"/>
					<circle class="st3" cx="167.8" cy="207.7" r="2.2"/>
				</g>
				<path class="st3" d="M50.2,138.2c-6.3,0-11.5-5.1-11.5-11.5v-24.9h-1.3v24.9c0,7,5.7,12.8,12.8,12.8c17.3,0.1,34.6,0.1,51.8,0.2
					c0-0.5-0.1-1-0.1-1.5C84.7,138.1,67.4,138.2,50.2,138.2z"/>
				<g>
					<path class="st3" d="M192.3,96.9c-5.6,0-10.2,4.5-10.2,9.9c0,15,0,30,0,44.9c0.4,0,0.7,0,1.1,0c0-15,0-30,0-44.9
						c0-4.9,4.1-8.9,9.1-8.9c8.3,0,16.6,0.1,24.9,0.1c0-0.4,0-0.9,0-1.3C208.8,96.7,200.6,96.8,192.3,96.9z"/>
					<circle class="st3" cx="182.7" cy="151.8" r="2.8"/>
				</g>
				<g>
					<circle class="st3" cx="207.6" cy="177" r="2.5"/>
					<path class="st3" d="M284.8,176c-25.9,0-51.8,0-77.7,0c0,0.6,0.1,1.2,0.1,1.9c25.8-0.1,51.7-0.1,77.5-0.2
						c6.3,0,11.5,6.6,11.5,14.7v30.1h1.3v-30.1C297.5,183.3,291.8,176,284.8,176z"/>
				</g>
			</g>
		</g>
	</g>
</g>
</svg>
